<svg version="1.0" xmlns="http://www.w3.org/2000/svg" viewBox="0 0 50.000000 50.000000"
     preserveAspectRatio="xMidYMid meet">
    <g transform="translate(0.000000,50.000000) scale(0.100000,-0.100000)" fill="#147aa4" stroke="none">
        <path d="M45 447 c-3 -7 -4 -100 -3 -207 l3 -195 205 0 205 0 0 205 0 205
-203 3 c-159 2 -204 0 -207 -11z m395 -197 l0 -190 -190 0 -190 0 0 190 0 190
190 0 190 0 0 -190z"/>
        <path d="M240 400 c0 -6 29 -10 67 -10 l68 0 -110 -110 c-60 -60 -106 -113
-102 -117 4 -4 57 42 117 102 l110 110 0 -68 c0 -38 4 -67 10 -67 6 0 10 35
10 85 l0 85 -85 0 c-50 0 -85 -4 -85 -10z"/>
    </g>
</svg>
