<svg xmlns="http://www.w3.org/2000/svg" width="22.8" height="17.458" viewBox="0 0 22.8 17.458">
  <g id="link" transform="translate(-1.091 -5.619)">
    <path id="Path_15" data-name="Path 15" d="M26.218,6.959a4.553,4.553,0,0,0-6.451,0l1.077,1.077a3.043,3.043,0,0,1,4.3,4.3L19.077,18.41a3.04,3.04,0,1,1-4.3-4.295l1.07-1.077-1.07-1.077L13.7,13.038a4.558,4.558,0,0,0,6.466,6.427l6.071-6.071a4.553,4.553,0,0,0-.015-6.435Z" transform="translate(-3.667 0)" fill="#f6fcff"/>
    <path id="Path_16" data-name="Path 16" d="M3.535,21.773a3.035,3.035,0,0,1,0-4.3L9.606,11.4a3.035,3.035,0,0,1,4.3,0,2.99,2.99,0,0,1,.865,2.163,3.035,3.035,0,0,1-.888,2.163l-1.609,1.632,1.077,1.077,1.609-1.609A4.566,4.566,0,1,0,8.5,10.368L2.434,16.438a4.52,4.52,0,0,0,3.233,7.748,4.606,4.606,0,0,0,3.248-1.336L7.838,21.774a3.035,3.035,0,0,1-4.3,0Z" transform="translate(0 -1.11)" fill="#f6fcff"/>
  </g>
</svg>
