<svg xmlns="http://www.w3.org/2000/svg" width="25.331" height="18.999" viewBox="0 0 25.331 18.999">
  <g id="puzzle" transform="translate(0 -4.5)">
    <path id="Path_21" data-name="Path 21" d="M7.29,5.292v0ZM5.716,7.033,6.5,6.965V6.954Zm5.367-1.742h.792a.792.792,0,0,0-.792-.792Zm-1.07,2.3.481.628Zm5.307,0-.481.628Zm-1.07-2.3V4.5a.792.792,0,0,0-.792.792Zm5.367,1.742-.789-.08v.011Zm-.459,5.383-.789-.068a.792.792,0,0,0,.789.86Zm2.935-1.07.628.481-.628-.481Zm0,5.307.628-.481-.628.481Zm-2.935-1.07v-.792a.792.792,0,0,0-.789.858Zm.459,5.383-.789.068v.011Zm-5.367,1.742h-.792a.792.792,0,0,0,.792.792Zm1.07-2.3-.481-.628Zm-5.307,0,.481-.628Zm1.07,2.3V23.5a.792.792,0,0,0,.792-.792Zm-3.792,0v0ZM5.715,20.965l.789.08v-.011l-.788-.068Zm.459-5.383.789.067a.792.792,0,0,0-.789-.858ZM3.24,16.653l-.628-.481Zm0-5.307-.628.481Zm2.935,1.07v.792a.792.792,0,0,0,.789-.86ZM7.29,4.5A2.375,2.375,0,0,0,4.927,7.112L6.5,6.954a.792.792,0,0,1,.788-.87Zm3.792,0H7.29V6.083h3.792Zm.792,1.4v-.6H10.291V5.9h1.583ZM10.493,8.222A3.043,3.043,0,0,0,11.874,5.9H10.291c0,.309-.233.665-.76,1.069l.963,1.257Zm-.2.236V8.449a.179.179,0,0,1,.019-.039.727.727,0,0,1,.182-.186L9.531,6.966a1.9,1.9,0,0,0-.823,1.493h1.583Zm2.375.792a4.333,4.333,0,0,1-1.884-.38,1.362,1.362,0,0,1-.429-.307.337.337,0,0,1-.062-.1v0H8.708a2.157,2.157,0,0,0,1.365,1.827,5.9,5.9,0,0,0,2.593.548Zm2.375-.792v0a.337.337,0,0,1-.062.1,1.362,1.362,0,0,1-.428.305,4.363,4.363,0,0,1-1.885.38v1.583a5.913,5.913,0,0,0,2.593-.547,2.159,2.159,0,0,0,1.365-1.827H15.04Zm-.2-.237a.725.725,0,0,1,.182.189.276.276,0,0,1,.019.039v.009h1.583A1.9,1.9,0,0,0,15.8,6.965l-.963,1.257ZM13.457,5.9a3.043,3.043,0,0,0,1.381,2.326L15.8,6.966c-.527-.4-.76-.76-.76-1.069H13.457Zm0-.605V5.9H15.04V5.292H13.457ZM18.041,4.5H14.249V6.085h3.792V4.5ZM20.4,7.113A2.375,2.375,0,0,0,18.041,4.5V6.083a.792.792,0,0,1,.789.871l1.575.158Zm-.459,5.37L20.4,7.1l-1.577-.134-.459,5.383Zm.45-.858H19.157v1.583H20.4V11.625Zm1.069-.76c-.4.527-.76.76-1.069.76v1.583a3.043,3.043,0,0,0,2.326-1.381l-1.257-.963Zm1.493-.823a1.9,1.9,0,0,0-1.493.823l1.257.963a.727.727,0,0,1,.186-.182.179.179,0,0,1,.039-.019l.009,0V10.041ZM25.331,14a5.913,5.913,0,0,0-.547-2.593,2.159,2.159,0,0,0-1.827-1.365v1.583h0l.015,0a.375.375,0,0,1,.084.057,1.362,1.362,0,0,1,.307.428A4.355,4.355,0,0,1,23.748,14h1.583Zm-2.375,3.958a2.157,2.157,0,0,0,1.827-1.365A5.9,5.9,0,0,0,25.331,14H23.748a4.333,4.333,0,0,1-.38,1.884,1.361,1.361,0,0,1-.307.429.338.338,0,0,1-.1.062h0Zm-1.493-.823a1.9,1.9,0,0,0,1.493.823V16.374h-.009a.179.179,0,0,1-.039-.019.725.725,0,0,1-.186-.182l-1.257.963Zm-1.069-.76c.309,0,.665.233,1.069.76l1.257-.963A3.043,3.043,0,0,0,20.4,14.791v1.583Zm-1.238,0h1.238V14.791H19.157v1.583ZM20.4,20.9l-.459-5.383-1.577.133.459,5.384Zm-2.363,2.6A2.375,2.375,0,0,0,20.4,20.886l-1.575.158a.792.792,0,0,1-.789.871V23.5Zm-3.792,0h3.792V21.915H14.249Zm.792-.792V22.1H13.457v.605Zm0-.605c0-.309.233-.665.76-1.069l-.963-1.257A3.043,3.043,0,0,0,13.457,22.1H15.04Zm.76-1.069a1.9,1.9,0,0,0,.823-1.493H15.04v.009a.179.179,0,0,1-.019.039.727.727,0,0,1-.182.186l.963,1.257Zm.823-1.493a2.157,2.157,0,0,0-1.365-1.827,5.913,5.913,0,0,0-2.593-.547v1.583a4.329,4.329,0,0,1,1.884.38,1.358,1.358,0,0,1,.429.307.338.338,0,0,1,.062.1v0h1.583Zm-3.958-2.374a5.913,5.913,0,0,0-2.593.547A2.159,2.159,0,0,0,8.708,19.54h1.583v0l0-.015a.338.338,0,0,1,.057-.084,1.36,1.36,0,0,1,.428-.307,4.363,4.363,0,0,1,1.885-.38ZM8.708,19.54a1.9,1.9,0,0,0,.823,1.493l.963-1.257a.727.727,0,0,1-.182-.186.179.179,0,0,1-.019-.039v-.01Zm.823,1.493c.527.4.76.76.76,1.069h1.583a3.043,3.043,0,0,0-1.381-2.326l-.963,1.257Zm.76,1.069v.605h1.583V22.1Zm-3,1.4h3.792V21.915H7.29ZM4.927,20.886A2.375,2.375,0,0,0,7.29,23.5V21.915a.792.792,0,0,1-.789-.871l-1.575-.158Zm.459-5.372L4.927,20.9l1.577.134.459-5.383-1.577-.136Zm-.45.86H6.174V14.791H4.936Zm-1.069.76c.4-.527.76-.76,1.069-.76V14.791a3.043,3.043,0,0,0-2.326,1.381l1.257.963Zm-1.493.823a1.9,1.9,0,0,0,1.493-.823L2.61,16.172a.727.727,0,0,1-.186.182.177.177,0,0,1-.039.019H2.375v1.583ZM0,14a5.913,5.913,0,0,0,.547,2.593,2.159,2.159,0,0,0,1.827,1.365V16.374h0a.337.337,0,0,1-.1-.062,1.362,1.362,0,0,1-.305-.428A4.375,4.375,0,0,1,1.583,14Zm2.375-3.958A2.157,2.157,0,0,0,.548,11.406,5.9,5.9,0,0,0,0,14H1.583a4.329,4.329,0,0,1,.38-1.884,1.362,1.362,0,0,1,.307-.429.337.337,0,0,1,.1-.062h0Zm1.493.823a1.9,1.9,0,0,0-1.493-.823v1.583h.009a.177.177,0,0,1,.039.019.715.715,0,0,1,.186.182l1.257-.963Zm1.069.76c-.309,0-.665-.233-1.069-.76l-1.257.963a3.043,3.043,0,0,0,2.326,1.381V11.624Zm1.238,0H4.937v1.583H6.174V11.624ZM4.928,7.1l.459,5.383,1.577-.134L6.5,6.965,4.928,7.1Z" fill="#fcfeff"/>
  </g>
</svg>
