<svg xmlns="http://www.w3.org/2000/svg" width="26.151" height="28.977" viewBox="0 0 26.151 28.977">
  <path id="discord" d="M24.758,0a3.178,3.178,0,0,1,3.148,2.989V28.977l-3.233-2.745L22.9,24.617l-1.937-1.688.809,2.663H4.822A3,3,0,0,1,1.755,22.6V2.994A3.056,3.056,0,0,1,4.827,0H24.749ZM17.371,6.861h-.036l-.244.241A9.734,9.734,0,0,1,20.8,8.958a13.144,13.144,0,0,0-4.52-1.373,12.4,12.4,0,0,0-2.989,0h-.241a10.758,10.758,0,0,0-3.393.888c-.564.245-.888.406-.888.406A8.612,8.612,0,0,1,12.65,7.023l-.163-.163a7.253,7.253,0,0,0-4.2,1.533,18.894,18.894,0,0,0-2.18,8.476,5.268,5.268,0,0,0,4.519,2.181s.483-.644.972-1.21a4.777,4.777,0,0,1-2.584-1.7,4.031,4.031,0,0,1,.4.241h.072a.1.1,0,0,1,.072.036v.007a.092.092,0,0,0,.072.036c.4.164.8.326,1.123.483a9.876,9.876,0,0,0,2.173.647,12.389,12.389,0,0,0,3.876,0,11.24,11.24,0,0,0,2.173-.646,17.445,17.445,0,0,0,1.686-.889,4.8,4.8,0,0,1-2.663,1.7c.4.563.96,1.207.96,1.207a6.3,6.3,0,0,0,4.673-2.084A18.855,18.855,0,0,0,21.448,8.4,7.263,7.263,0,0,0,17.3,6.882l.068-.024Zm.2,5.329a1.617,1.617,0,1,1-1.533,1.619,1.575,1.575,0,0,1,1.533-1.619Zm-5.486,0a1.617,1.617,0,1,1-1.538,1.619,1.573,1.573,0,0,1,1.538-1.619Z" transform="translate(-1.755)" fill="#fcfeff"/>
</svg>
