<svg xmlns="http://www.w3.org/2000/svg" width="28.641" height="28.575" viewBox="0 0 28.641 28.575">
  <path id="github-box" d="M2.884.25H25.757a2.784,2.784,0,0,1,2.046.839,2.7,2.7,0,0,1,.838,1.978v22.94a2.7,2.7,0,0,1-.839,1.978,2.787,2.787,0,0,1-2.045.839H18.379q-.469-.067-.469-1.409v-3.89A3.362,3.362,0,0,0,16.9,20.843a8.785,8.785,0,0,0,4.729-1.811q1.777-1.475,1.777-5.232a5.468,5.468,0,0,0-1.475-3.823A4.769,4.769,0,0,0,21.8,6.153q-1.207-.4-3.89,1.475a13.882,13.882,0,0,0-3.622-.469,13.141,13.141,0,0,0-3.555.469,11.192,11.192,0,0,0-2.18-1.174,3.148,3.148,0,0,0-1.375-.3h-.4a5.174,5.174,0,0,0-.134,3.823A5.468,5.468,0,0,0,5.165,13.8q0,3.689,1.811,5.2a8.729,8.729,0,0,0,4.7,1.845,2.931,2.931,0,0,0-.872,1.945Q7.982,24,6.641,21.58A2.805,2.805,0,0,0,4.427,20.1a1.54,1.54,0,0,0-.3.034.78.78,0,0,0-.369.234q-.2.2.537.6A3.479,3.479,0,0,1,5.9,23.056q.067.134.134.3A3.576,3.576,0,0,0,6.474,24a2.376,2.376,0,0,0,.872.7,7.233,7.233,0,0,0,1.374.436A3.96,3.96,0,0,0,10.732,25v2.415q0,1.342-.537,1.409H2.884a2.784,2.784,0,0,1-2.046-.839A2.7,2.7,0,0,1,0,26.007V3.067A2.7,2.7,0,0,1,.839,1.089,2.787,2.787,0,0,1,2.884.25Z" transform="translate(0 -0.25)" fill="#fcfeff"/>
</svg>
