<svg xmlns="http://www.w3.org/2000/svg" width="28.977" height="28.977" viewBox="0 0 28.977 28.977">
  <path id="twitter-square" d="M24.148,9.093a8.4,8.4,0,0,1-2.283.642A3.852,3.852,0,0,0,23.62,7.528a7.86,7.86,0,0,1-2.528.962A3.766,3.766,0,0,0,18.2,7.244a3.961,3.961,0,0,0-3.962,3.962,3.639,3.639,0,0,0,.094.906,11.221,11.221,0,0,1-4.565-1.226A11.209,11.209,0,0,1,6.15,7.961a3.922,3.922,0,0,0-.547,2,3.737,3.737,0,0,0,1.717,3.3,4.668,4.668,0,0,1-1.887-.49v.038a3.767,3.767,0,0,0,.943,2.519A3.958,3.958,0,0,0,8.7,16.7a3.672,3.672,0,0,1-.962.151A5.294,5.294,0,0,1,7,16.771,4.026,4.026,0,0,0,8.4,18.734a3.763,3.763,0,0,0,2.292.792,7.829,7.829,0,0,1-4.924,1.7,7.645,7.645,0,0,1-.943-.056,11.115,11.115,0,0,0,6.075,1.773,11.545,11.545,0,0,0,3.962-.67,10.2,10.2,0,0,0,3.17-1.793,11.9,11.9,0,0,0,2.273-2.585,11.4,11.4,0,0,0,1.876-6.235q0-.34-.019-.51a7.7,7.7,0,0,0,1.981-2.057Zm4.83-3.66V23.544a5.441,5.441,0,0,1-5.433,5.433H5.433a5.235,5.235,0,0,1-3.839-1.594A5.229,5.229,0,0,1,0,23.544V5.433A5.235,5.235,0,0,1,1.594,1.594,5.229,5.229,0,0,1,5.433,0H23.544a5.235,5.235,0,0,1,3.839,1.594A5.229,5.229,0,0,1,28.977,5.433Z" fill="#fcfeff"/>
</svg>
